# xmcd CD database file
#
# Track frame offsets:
#	150
#	19069
#	37587
#	53415
#	71653
#	91122
#	103628
#	115890
#	129720
#	154321
#	168881
#	189525
#
# Disc length: 2871 seconds
#
# Revision: 0
# Processed by: cddbd v1.4PL0 Copyright (c) Steve Scherf et al.
# Submitted via: Feurio! 1.64 - http://www.feurio.com
#
DISCID=8f0b350c
DTITLE=Various Artist - Blues On The River
DYEAR=2002
DGENRE=blues
TTITLE0=Dicky Greenwood Band - I love my baby
TTITLE1=La Blusa - Cajun cooking
TTITLE2=Oscar Benton - Still in the game
TTITLE3=Montana Red Dog - Treat her right
TTITLE4=Be Loose - Pride and joy
TTITLE5=Bull Shit Bluesband - A letter to my girlfriend
TTITLE6=Captain Gumbo - La bella est parti
TTITLE7=Magic Frankie and The Blues Disease - Electric city
TTITLE8=Nervous Fellas - Surotogo
TTITLE9=Percy Strother - Last night
TTITLE10=La Blusa - Drowned in your eyes
TTITLE11=Dicky Greenwood Band - Sad sad sad
EXTD=jubileumuitgave 5 jaar blues on the river. www.bluesontheriver.com
EXTT0=
EXTT1=
EXTT2=
EXTT3=
EXTT4=
EXTT5=
EXTT6=
EXTT7=
EXTT8=
EXTT9=
EXTT10=
EXTT11=
PLAYORDER=
